<svg width="114" height="141" viewBox="0 0 114 141" fill="none" xmlns="http://www.w3.org/2000/svg">
<path d="M2.05653 53.0034V132.312C2.05653 135.97 5.00848 138.935 8.64968 138.935H105.351C108.992 138.935 111.944 135.969 111.944 132.312V55.047L2.05653 53.0034Z" fill="#FFE17D"/>
<path d="M74.8493 92.3079L68.7933 98.3907L44.6027 97.7832L39.1518 92.3079L2.05653 129.568V132.312C2.05653 135.969 5.00848 138.934 8.64968 138.934H105.351C108.992 138.934 111.944 135.969 111.944 132.312V129.568L74.8493 92.3079Z" fill="#FFD164"/>
<path d="M110.101 49.1503L100.955 41.8015H13.0451L3.89975 49.1503C2.73454 50.0866 2.05625 51.5041 2.05625 53.0033C2.05625 54.312 2.57388 55.5669 3.4948 56.4922L57.0003 110.236L110.505 56.492C111.427 55.5666 111.944 54.3117 111.944 53.003C111.944 51.5044 111.266 50.0866 110.101 49.1503Z" fill="#FFD164"/>
<path d="M13.0451 66.0849L44.6025 97.7832L68.793 98.3907L100.955 66.0849V4.27296C100.955 3.05381 99.9712 2.06543 98.7574 2.06543H15.2431C14.0294 2.06543 13.0454 3.05381 13.0454 4.27296L13.0451 66.0849Z" fill="#EDEBED"/>
<path d="M61.1745 96.6776L59.6962 98.1622L68.793 98.3908L100.955 66.085V56.7189L99.4012 58.2801L61.1745 96.6776Z" fill="#DBD9DC"/>
<path d="M54.1665 98.0233L52.5327 96.3823L14.5994 58.2798L13.0451 56.7186V66.0849L44.6025 97.7832L54.1665 98.0233Z" fill="#DBD9DC"/>
<path d="M105.351 138.935C107.172 138.935 108.82 138.194 110.013 136.995L66.3247 93.1116C61.175 87.9389 52.8258 87.9389 47.6762 93.1116L3.98748 136.995C5.18065 138.194 6.82894 138.935 8.64968 138.935H105.351Z" fill="#FFE17D"/>
<path d="M51.8772 30.6215C53.0128 30.6215 53.9334 29.6967 53.9334 28.556C53.9334 27.4154 53.0128 26.4906 51.8772 26.4906H41.8981C40.7625 26.4906 39.8419 27.4154 39.8419 28.556V46.2166C39.8419 47.3572 40.7625 48.282 41.8981 48.282H51.8772C53.0128 48.282 53.9334 47.3572 53.9334 46.2166C53.9334 45.0759 53.0128 44.1511 51.8772 44.1511H43.9543V39.4519H50.6297C51.7653 39.4519 52.686 38.5271 52.686 37.3864C52.686 36.2458 51.7653 35.321 50.6297 35.321H43.9543V30.6215H51.8772Z" fill="black"/>
<path d="M24.034 48.2824C25.1696 48.2824 26.0902 47.3576 26.0902 46.2169V36.3797L32.2247 47.2364C32.5962 47.894 33.2863 48.2826 34.0128 48.2824C34.1869 48.2824 34.3632 48.26 34.5378 48.2138C35.4404 47.9745 36.069 47.1544 36.069 46.2169V28.5564C36.069 27.4157 35.1484 26.491 34.0128 26.491C32.8772 26.491 31.9565 27.4157 31.9565 28.5564V38.3936L25.8221 27.5369C25.3615 26.7215 24.4123 26.3205 23.5089 26.5595C22.6064 26.7989 21.9777 27.619 21.9777 28.5564V46.2169C21.9777 47.3576 22.8984 48.2824 24.034 48.2824Z" fill="black"/>
<path d="M62.3462 48.2823C63.3171 48.2823 64.1555 47.6004 64.3572 46.647L66.0883 38.4778L67.8191 46.647C68.0212 47.6004 68.8596 48.2823 69.8304 48.2823C70.8013 48.2823 71.6396 47.6004 71.8414 46.647L75.5835 28.9865C75.8199 27.8706 75.1111 26.7737 74.0005 26.5364C72.889 26.2992 71.7976 27.0109 71.5612 28.1265L69.8304 36.2954L68.0996 28.1265C67.8976 27.1731 67.0592 26.4912 66.0883 26.4912C65.1178 26.4912 64.2791 27.1731 64.0773 28.1265L62.3462 36.2956L60.6154 28.1265C60.3791 27.0109 59.2874 26.2992 58.1762 26.5364C57.0655 26.7737 56.3568 27.8709 56.5931 28.9865L60.3352 46.647C60.537 47.6004 61.3754 48.2823 62.3462 48.2823Z" fill="black"/>
<path d="M84.977 30.6215C86.656 30.6215 87.9103 31.5707 87.9103 32.4192C87.9103 33.5599 88.831 34.4846 89.9666 34.4846C91.1022 34.4846 92.0228 33.5599 92.0228 32.4192C92.0228 29.15 88.8622 26.4906 84.977 26.4906C81.0918 26.4906 77.9312 29.1503 77.9312 32.4192C77.9312 36.9885 81.8981 38.4514 84.2686 39.3252C87.4042 40.4813 87.9103 41.1648 87.9103 42.3534C87.9103 43.2021 86.656 44.1511 84.977 44.1511C83.298 44.1511 82.0437 43.2019 82.0437 42.3534C82.0437 41.2127 81.1231 40.2879 79.9875 40.2879C78.8519 40.2879 77.9312 41.2127 77.9312 42.3534C77.9312 45.6225 81.0918 48.282 84.977 48.282C88.8622 48.282 92.0228 45.6223 92.0228 42.3534C92.0228 37.7838 88.0559 36.3212 85.6857 35.4474C82.5498 34.291 82.044 33.6078 82.044 32.4192C82.0437 31.5707 83.298 30.6215 84.977 30.6215Z" fill="black"/>
<path d="M111.385 47.5377L103.011 40.809V4.27296C103.012 1.91672 101.103 0 98.7577 0H15.2428C12.8971 0 10.9889 1.91672 10.9889 4.27296V40.809L2.61527 47.5377C0.953277 48.8733 0 50.8652 0 53.0033V132.312C0 137.103 3.88 141 8.6494 141H105.351C110.12 141 114 137.103 114 132.312C114 132.312 114 53.4566 114 53.0033C114 50.8655 113.047 48.8733 111.385 47.5377ZM5.18449 50.7633L10.9889 46.099V61.0984L4.94898 55.0316C4.40969 54.4899 4.11249 53.7695 4.11249 53.0031C4.11277 52.127 4.50318 51.3108 5.18449 50.7633ZM105.351 136.869H8.64967C8.15946 136.869 7.68817 136.788 7.24567 136.643L36.9346 106.822C37.7376 106.015 37.7376 104.707 36.9346 103.901C36.1316 103.094 34.8295 103.094 34.0268 103.901L4.33759 133.722C4.1931 133.277 4.11249 132.804 4.11249 132.312V60.0335L40.9056 96.9909L40.1618 97.7381C39.3588 98.5447 39.3588 99.8525 40.1618 100.659C40.9648 101.465 42.2669 101.465 43.0696 100.659L49.1295 94.5719C51.2318 92.4602 54.0269 91.2972 57 91.2972C59.9731 91.2972 62.7682 92.4602 64.8705 94.5719L106.755 136.643C106.312 136.788 105.841 136.869 105.351 136.869ZM109.888 132.312C109.888 132.804 109.807 133.278 109.663 133.722L73.0944 96.9906L109.888 60.0332V132.312H109.888ZM109.052 55.0319L91.0199 73.1438C90.7115 72.9584 90.3521 72.8496 89.9666 72.8496H61.3957C60.2601 72.8496 59.3395 73.7744 59.3395 74.9151C59.3395 76.0557 60.2601 76.9805 61.3957 76.9805H87.2L82.5213 81.6798H61.3954C60.2598 81.6798 59.3392 82.6045 59.3392 83.7452C59.3392 84.8859 60.2598 85.8106 61.3954 85.8106H78.4088L70.1866 94.0696L67.7783 91.6506C61.8352 85.6806 52.1648 85.6806 46.2217 91.6506L43.8134 94.0696L35.5912 85.8106H52.6046C53.7402 85.8106 54.6608 84.8859 54.6608 83.7452C54.6608 82.6045 53.7402 81.6798 52.6046 81.6798H31.4787L26.8 76.9805H52.6043C53.7399 76.9805 54.6605 76.0557 54.6605 74.9151C54.6605 73.7744 53.7399 72.8496 52.6043 72.8496H24.034C23.6485 72.8496 23.2888 72.9581 22.9806 73.1438L15.1014 65.2293V4.27296C15.1014 4.19447 15.1647 4.13086 15.2428 4.13086H98.7575C98.8356 4.13086 98.8989 4.19447 98.8989 4.27296V52.8395C98.8989 53.9801 99.8196 54.9049 100.955 54.9049C102.091 54.9049 103.011 53.9801 103.011 52.8395V46.099L108.816 50.7633C109.497 51.3108 109.888 52.127 109.888 53.0033C109.888 53.7695 109.591 54.4899 109.052 55.0319Z" fill="black"/>
<path d="M89.9666 15.453H24.034C22.8984 15.453 21.9777 16.3778 21.9777 17.5184C21.9777 18.6591 22.8984 19.5839 24.034 19.5839H89.9663C91.1019 19.5839 92.0225 18.6591 92.0225 17.5184C92.0225 16.3778 91.1022 15.453 89.9666 15.453Z" fill="black"/>
<path d="M89.9666 55.1891H24.034C22.8984 55.1891 21.9777 56.1138 21.9777 57.2545C21.9777 58.3952 22.8984 59.3199 24.034 59.3199H89.9663C91.1019 59.3199 92.0225 58.3952 92.0225 57.2545C92.0225 56.1138 91.1022 55.1891 89.9666 55.1891Z" fill="black"/>
<path d="M52.6048 64.0195H24.034C22.8984 64.0195 21.9777 64.9443 21.9777 66.085C21.9777 67.2256 22.8984 68.1504 24.034 68.1504H52.6046C53.7402 68.1504 54.6608 67.2256 54.6608 66.085C54.6608 64.9443 53.7404 64.0195 52.6048 64.0195Z" fill="black"/>
<path d="M89.9666 64.0195H61.3957C60.2601 64.0195 59.3394 64.9443 59.3394 66.085C59.3394 67.2256 60.2601 68.1504 61.3957 68.1504H89.9663C91.1019 68.1504 92.0225 67.2256 92.0225 66.085C92.0225 64.9443 91.1022 64.0195 89.9666 64.0195Z" fill="black"/>
</svg>
