<svg width="64" height="66" viewBox="0 0 64 66" fill="none" xmlns="http://www.w3.org/2000/svg">
<path d="M63.9492 35.9651C62.8567 52.7591 48.9591 66 32.0127 66C14.5836 66 0.406511 51.9922 0 34.5593C0.482731 51.0209 16.362 32.4121 33.7912 32.4121C50.6868 32.4376 62.9075 49.9218 63.9492 35.9651Z" fill="#12890E"/>
<path d="M64 32.2076C64 32.3354 64 32.4888 64 32.6166C64 32.7444 64 32.8977 64 33.0256C64 33.2556 64 33.4857 63.9746 33.7157C63.9746 33.7924 63.9746 33.8435 63.9746 33.9202C63.9746 34.0736 63.9492 34.227 63.9492 34.3548C62.8821 48.3114 50.6868 29.2169 33.7912 29.2169C16.362 29.2169 0.482731 49.4105 0 32.9744C0 32.8978 0 32.7955 0 32.7188C0 32.6421 0 32.5399 0 32.4632C0 32.3865 0 32.2843 0 32.2076C0 14.4167 14.3295 0 32.0127 0C49.6705 0 64 14.4167 64 32.2076Z" fill="#003DA1"/>
<path d="M41.0322 46.1131V52.3245C41.0322 52.5546 40.8543 52.7335 40.6257 52.7335H35.4681V57.9225C35.4681 58.1526 35.2902 58.3315 35.0615 58.3315H28.8623C28.6336 58.3315 28.4557 58.1526 28.4557 57.9225V52.7335H23.349C23.1203 52.7335 22.9424 52.5546 22.9424 52.3245V46.1131C22.9424 45.883 23.1203 45.7041 23.349 45.7041H28.5066V40.5151C28.5066 40.285 28.6844 40.1061 28.9131 40.1061H35.1124C35.341 40.1061 35.5189 40.285 35.5189 40.5151V45.7041H40.6257C40.8543 45.7041 41.0322 45.883 41.0322 46.1131Z" fill="white"/>
</svg>
