<svg width="280" height="50" viewBox="0 0 295 50" fill="none" xmlns="http://www.w3.org/2000/svg">
<path d="M47.9619 26.9739C47.1425 39.5693 36.7193 49.5 24.0095 49.5C10.9377 49.5 0.304883 38.9942 0 25.9194C0.362048 38.2657 12.2715 24.3091 25.3434 24.3091C38.0151 24.3282 47.1806 37.4413 47.9619 26.9739Z" fill="#12890E"/>
<path d="M48 24.1557C48 24.2515 48 24.3666 48 24.4624C48 24.5583 48 24.6733 48 24.7692C48 24.9417 48 25.1142 47.9809 25.2868C47.9809 25.3443 47.9809 25.3826 47.9809 25.4402C47.9809 25.5552 47.9619 25.6702 47.9619 25.7661C47.1616 36.2335 38.0151 21.9127 25.3434 21.9127C12.2715 21.9127 0.362048 37.0579 0 24.7308C0 24.6733 0 24.5966 0 24.5391C0 24.4816 0 24.4049 0 24.3474C0 24.2899 0 24.2132 0 24.1557C0 10.8125 10.7471 0 24.0095 0C37.2529 0 48 10.8125 48 24.1557Z" fill="#003DA1"/>
<path d="M30.7741 34.5848V39.2434C30.7741 39.4159 30.6407 39.5501 30.4692 39.5501H26.601V43.4419C26.601 43.6144 26.4677 43.7486 26.2962 43.7486H21.6467C21.4752 43.7486 21.3418 43.6144 21.3418 43.4419V39.5501H17.5117C17.3402 39.5501 17.2068 39.4159 17.2068 39.2434V34.5848C17.2068 34.4123 17.3402 34.2781 17.5117 34.2781H21.3799V30.3863C21.3799 30.2138 21.5133 30.0796 21.6848 30.0796H26.3343C26.5058 30.0796 26.6391 30.2138 26.6391 30.3863V34.2781H30.4692C30.6407 34.2781 30.7741 34.4123 30.7741 34.5848Z" fill="white"/>
<path d="M66.84 22.4951V26.3391C66.84 27.4024 65.9822 28.2612 64.92 28.2612C63.8579 28.2612 63 27.4024 63 26.3391V10.922C63 9.85878 63.8579 9 64.92 9H73.5805C77.298 9 80.321 12.0262 80.321 15.7475C80.321 19.4689 77.298 22.4951 73.5805 22.4951H66.84ZM66.84 12.885V18.651H73.5805C75.1737 18.651 76.481 17.3424 76.481 15.7475C76.481 14.1527 75.1737 12.8441 73.5805 12.8441H66.84V12.885Z" fill="black"/>
<path d="M100.338 19.5916C100.338 24.3762 96.4573 28.2612 91.6777 28.2612C86.8981 28.2612 83.0172 24.3762 83.0172 19.5916V10.922C83.0172 9.85878 83.8751 9 84.9372 9C85.9994 9 86.8573 9.85878 86.8573 10.922V19.5916C86.8573 22.2497 89.0224 24.4171 91.6777 24.4171C94.3331 24.4171 96.4982 22.2497 96.4982 19.5916V10.922C96.4982 9.85878 97.3561 9 98.4182 9C99.4803 9 100.338 9.85878 100.338 10.922V19.5916Z" fill="black"/>
<path d="M105.69 28.3021C104.628 28.3021 103.77 27.4433 103.77 26.38V10.9629C103.77 9.89966 104.628 9.04088 105.69 9.04088H114.35C117.537 9.04088 120.11 11.6172 120.11 14.807C120.11 16.0338 119.702 17.1788 119.048 18.1194C120.274 19.1826 121.05 20.7775 121.05 22.536C121.05 25.7257 118.476 28.3021 115.29 28.3021H105.69ZM107.61 12.8849V16.729H114.35C115.412 16.729 116.27 15.8702 116.27 14.807C116.27 13.7437 115.412 12.8849 114.35 12.8849H107.61ZM107.61 20.5731V24.4171H115.331C116.393 24.4171 117.251 23.5583 117.251 22.4951C117.251 21.4318 116.393 20.5731 115.331 20.5731H107.61Z" fill="black"/>
<path d="M124.277 10.922C124.277 9.85878 125.135 9 126.197 9C127.259 9 128.117 9.85878 128.117 10.922V24.4171H137.758C138.82 24.4171 139.678 25.2759 139.678 26.3391C139.678 27.4024 138.82 28.2612 137.758 28.2612H126.197C125.135 28.2612 124.277 27.4024 124.277 26.3391V10.922Z" fill="black"/>
<path d="M145.52 12.8849H143.6C142.538 12.8849 141.68 12.0262 141.68 10.9629C141.68 9.89966 142.538 9.04088 143.6 9.04088H151.321C152.383 9.04088 153.241 9.89966 153.241 10.9629C153.241 12.0262 152.383 12.8849 151.321 12.8849H149.401V24.458H151.321C152.383 24.458 153.241 25.3168 153.241 26.38C153.241 27.4433 152.383 28.3021 151.321 28.3021H143.6C142.538 28.3021 141.68 27.4433 141.68 26.38C141.68 25.3168 142.538 24.458 143.6 24.458H145.52V12.8849Z" fill="black"/>
<path d="M163.658 28.3021C158.347 28.3021 154.017 24.0082 154.017 18.651C154.017 13.2939 158.306 9 163.658 9C166.109 9 168.56 9.98146 170.439 11.8217C170.807 12.1897 171.011 12.6805 171.011 13.1712C171.011 14.2345 170.112 15.0932 169.091 15.0932C168.56 15.0932 168.111 14.9297 167.743 14.5207C166.64 13.3757 165.129 12.8441 163.658 12.8441C160.471 12.8441 157.898 15.4204 157.898 18.6101C157.898 21.7999 160.471 24.3762 163.658 24.3762C165.129 24.3762 166.599 23.8446 167.743 22.6996C168.111 22.3315 168.601 22.127 169.091 22.127C170.112 22.127 171.011 23.0267 171.011 24.0491C171.011 24.5807 170.807 25.0305 170.439 25.3986C168.56 27.3615 166.109 28.3021 163.658 28.3021Z" fill="black"/>
<path d="M187.597 26.3391C187.597 27.4024 186.739 28.2612 185.677 28.2612C184.615 28.2612 183.757 27.4024 183.757 26.3391V10.922C183.757 9.85878 184.615 9 185.677 9C186.739 9 187.597 9.85878 187.597 10.922V16.6881H197.238V10.922C197.238 9.85878 198.096 9 199.158 9C200.22 9 201.078 9.85878 201.078 10.922V26.3391C201.078 27.4024 200.22 28.2612 199.158 28.2612C198.096 28.2612 197.238 27.4024 197.238 26.3391V20.5731H187.597V26.3391Z" fill="black"/>
<path d="M208.84 24.4171H218.48C219.543 24.4171 220.4 25.2759 220.4 26.3391C220.4 27.4024 219.543 28.2612 218.48 28.2612H206.92C205.857 28.2612 204.999 27.4024 204.999 26.3391V10.922C204.999 9.85878 205.857 9 206.92 9H218.48C219.543 9 220.4 9.85878 220.4 10.922C220.4 11.9853 219.543 12.8441 218.48 12.8441H208.84V16.6881H216.56C217.623 16.6881 218.48 17.5469 218.48 18.6101C218.48 19.6734 217.623 20.5322 216.56 20.5322H208.84V24.4171Z" fill="black"/>
<path d="M240.663 26.3391C240.663 27.4024 239.805 28.2612 238.743 28.2612C237.681 28.2612 236.823 27.4024 236.823 26.3391V22.4951H227.182V26.3391C227.182 27.4024 226.324 28.2612 225.262 28.2612C224.2 28.2612 223.342 27.4024 223.342 26.3391V17.6696C223.342 12.8849 227.223 9 232.002 9C236.782 9 240.663 12.8849 240.663 17.6696V26.3391ZM227.182 18.651H236.823V17.6696C236.823 15.0114 234.658 12.8441 232.002 12.8441C229.347 12.8441 227.182 15.0114 227.182 17.6696V18.651Z" fill="black"/>
<path d="M244.585 10.922C244.585 9.85878 245.442 9 246.505 9C247.567 9 248.425 9.85878 248.425 10.922V24.4171H258.065C259.128 24.4171 259.985 25.2759 259.985 26.3391C259.985 27.4024 259.128 28.2612 258.065 28.2612H246.505C245.442 28.2612 244.585 27.4024 244.585 26.3391V10.922Z" fill="black"/>
<path d="M263.866 12.8849H259.046C257.984 12.8849 257.126 12.0262 257.126 10.9629C257.126 9.89966 257.984 9.04088 259.046 9.04088H272.527C273.589 9.04088 274.447 9.89966 274.447 10.9629C274.447 12.0262 273.589 12.8849 272.527 12.8849H267.747V26.38C267.747 27.4433 266.889 28.3021 265.827 28.3021C264.765 28.3021 263.907 27.4433 263.907 26.38V12.8849H263.866Z" fill="black"/>
<path d="M281.269 26.3391C281.269 27.4024 280.411 28.2612 279.349 28.2612C278.287 28.2612 277.429 27.4024 277.429 26.3391V10.922C277.429 9.85878 278.287 9 279.349 9C280.411 9 281.269 9.85878 281.269 10.922V16.6881H290.91V10.922C290.91 9.85878 291.768 9 292.83 9C293.892 9 294.75 9.85878 294.75 10.922V26.3391C294.75 27.4024 293.892 28.2612 292.83 28.2612C291.768 28.2612 290.91 27.4024 290.91 26.3391V20.5731H281.269V26.3391Z" fill="black"/>
<path d="M99.8888 34.5998H101.114V46.3773H99.8888V34.5998Z" fill="#505050"/>
<path d="M116.515 34.5998V46.3773H115.494L107.937 36.8081V46.3773H106.711V34.5998H107.732L115.331 44.169V34.5998H116.515Z" fill="#505050"/>
<path d="M124.318 35.663H120.192V34.5998H129.67V35.663H125.544V46.3773H124.318V35.663Z" fill="#505050"/>
<path d="M141.68 45.3141V46.3773H133.346V34.5998H141.435V35.663H134.613V39.8342H140.699V40.8975H134.613V45.2732H141.68V45.3141Z" fill="#505050"/>
<path d="M154.303 46.3773L151.607 42.5742C151.321 42.615 150.994 42.6151 150.667 42.6151H147.522V46.3364H146.296V34.5589H150.708C153.69 34.5589 155.528 36.072 155.528 38.6074C155.528 40.4477 154.548 41.7563 152.832 42.3288L155.692 46.3773H154.303ZM154.262 38.6483C154.262 36.7672 153.036 35.7039 150.667 35.7039H147.522V41.5927H150.667C152.996 41.5927 154.262 40.4886 154.262 38.6483Z" fill="#505050"/>
<path d="M169.949 34.5998V46.3773H168.928L161.37 36.8081V46.3773H160.145V34.5998H161.166L168.764 44.169V34.5998H169.949Z" fill="#505050"/>
<path d="M182.858 43.2285H176.281L174.851 46.3773H173.544L178.936 34.5998H180.162L185.554 46.3773H184.247L182.858 43.2285ZM182.409 42.2061L179.59 35.8675L176.771 42.2061H182.409Z" fill="#505050"/>
<path d="M190.906 35.663H186.78V34.5998H196.298V35.663H192.172V46.3773H190.947V35.663H190.906Z" fill="#505050"/>
<path d="M199.934 34.5998H201.159V46.3773H199.934V34.5998Z" fill="#505050"/>
<path d="M205.653 40.4885C205.653 37.0534 208.268 34.4771 211.822 34.4771C215.335 34.4771 217.99 37.0125 217.99 40.4885C217.99 43.9645 215.335 46.5 211.822 46.5C208.268 46.4591 205.653 43.9237 205.653 40.4885ZM216.765 40.4885C216.765 37.6668 214.681 35.6221 211.822 35.6221C208.962 35.6221 206.879 37.7077 206.879 40.4885C206.879 43.3102 209.003 45.3549 211.822 45.3549C214.681 45.3549 216.765 43.3102 216.765 40.4885Z" fill="#505050"/>
<path d="M232.329 34.5998V46.3773H231.308L223.75 36.8081V46.3773H222.525V34.5998H223.546L231.144 44.169V34.5998H232.329Z" fill="#505050"/>
<path d="M245.238 43.2285H238.702L237.272 46.3773H235.965L241.357 34.5998H242.583L247.975 46.3773H246.668L245.238 43.2285ZM244.789 42.2061L241.97 35.8675L239.151 42.2061H244.789Z" fill="#505050"/>
<path d="M251.57 34.5998H252.796V45.3141H259.373V46.3773H251.529V34.5998H251.57Z" fill="#505050"/>
</svg>
