<svg width="23" height="22" viewBox="0 0 23 22" fill="none" xmlns="http://www.w3.org/2000/svg">
<path d="M16.842 0C14.1544 0 12.6431 1.91759 11.8866 3.36127C11.128 1.91826 9.61617 0 6.93494 0C3.73449 0 1.32092 2.67093 1.32092 6.21341C1.32092 7.57162 1.72605 8.84503 2.54058 10.1484C3.37866 9.75159 4.30235 9.51561 5.28374 9.51561C8.92535 9.51561 11.8885 12.5649 11.8885 16.3125C11.8885 17.1339 11.7242 17.9118 11.4635 18.6414L11.8885 19.02L12.3212 18.6343C13.3977 17.6739 14.4117 16.8057 15.3508 16.0018C19.629 12.3392 22.5 9.91919 22.5 6.21345C22.5 2.67097 20.0425 0 16.842 0Z" fill="#E51010"/>
<path d="M5.28376 10.875C2.36558 10.875 0 13.3094 0 16.3125C0 19.3155 2.36558 21.75 5.28376 21.75C8.20195 21.75 10.5675 19.3155 10.5675 16.3125C10.5675 13.3094 8.20195 10.875 5.28376 10.875ZM5.28376 15.6328C6.37638 15.6328 7.26517 16.5475 7.26517 17.6719C7.26517 18.7963 6.37638 19.7109 5.28376 19.7109C4.19115 19.7109 3.30236 18.7962 3.30236 17.6719H4.62331C4.62331 18.0469 4.91937 18.3516 5.28376 18.3516C5.64816 18.3516 5.94422 18.0469 5.94422 17.6719C5.94422 17.2969 5.64816 16.9922 5.28376 16.9922C4.19115 16.9922 3.30236 16.0776 3.30236 14.9532C3.30236 13.8288 4.19115 12.9141 5.28376 12.9141C6.37638 12.9141 7.26517 13.8288 7.26517 14.9532H5.94422C5.94422 14.5782 5.64816 14.2735 5.28376 14.2735C4.91937 14.2735 4.62331 14.5782 4.62331 14.9532C4.62331 15.3281 4.91937 15.6328 5.28376 15.6328Z" fill="#060606"/>
</svg>
